<svg width="16" height="16" viewBox="0 0 16 16" fill="none" xmlns="http://www.w3.org/2000/svg">
<path d="M11.8785 10.3256C12.8224 8.99769 13.2425 7.36638 13.0556 5.74569C12.865 4.09331 12.0576 2.57382 10.7948 1.4912C9.53199 0.408593 7.907 -0.157299 6.24491 -0.0932555C4.58281 -0.0292119 3.00618 0.660044 1.83045 1.83662C0.654723 3.01319 -0.0334045 4.59031 -0.0962586 6.25245C-0.159113 7.91459 0.407941 9.53917 1.49146 10.8012C2.57497 12.0632 4.09504 12.8695 5.74755 13.0589C7.3682 13.2447 8.99902 12.8236 10.3262 11.8789C10.3403 11.895 10.3549 11.911 10.3702 11.9267L10.3702 11.9267L10.3712 11.9277L14.2212 15.7777C14.2212 15.7777 14.2212 15.7777 14.2212 15.7777C14.4275 15.9841 14.7073 16.1001 14.999 16.1002C15.2908 16.1003 15.5707 15.9845 15.7771 15.7782C15.9835 15.572 16.0995 15.2922 16.0996 15.0004C16.0997 14.7086 15.9839 14.4287 15.7777 14.2223L15.7776 14.2223L11.9281 10.3727C11.928 10.3726 11.9278 10.3725 11.9277 10.3724C11.9118 10.3563 11.8954 10.3407 11.8785 10.3256ZM11.8999 6.49999C11.8999 7.20913 11.7602 7.91133 11.4889 8.56648C11.2175 9.22164 10.8197 9.81693 10.3183 10.3184C9.81686 10.8198 9.22157 11.2176 8.56641 11.4889C7.91125 11.7603 7.20906 11.9 6.49992 11.9C5.79078 11.9 5.08859 11.7603 4.43343 11.4889C3.77827 11.2176 3.18298 10.8198 2.68154 10.3184C2.18011 9.81693 1.78235 9.22164 1.51097 8.56648C1.2396 7.91133 1.09992 7.20913 1.09992 6.49999C1.09992 5.06782 1.66885 3.69431 2.68154 2.68162C3.69424 1.66892 5.06775 1.09999 6.49992 1.09999C7.93209 1.09999 9.3056 1.66892 10.3183 2.68162C11.331 3.69431 11.8999 5.06782 11.8999 6.49999Z" fill="white" stroke="white" stroke-width="0.2"/>
</svg>
