<svg width="24" height="24" viewBox="0 0 24 24" fill="none" xmlns="http://www.w3.org/2000/svg">
<path d="M15.203 13.4662C15.6526 13.4662 16.0244 13.3192 16.3184 13.0252C16.6124 12.7312 16.7594 12.3594 16.7594 11.9098C16.7594 11.4601 16.6124 11.0883 16.3184 10.7944C16.0244 10.5004 15.6526 10.3534 15.203 10.3534C14.7534 10.3534 14.3816 10.5004 14.0876 10.7944C13.7936 11.0883 13.6466 11.4601 13.6466 11.9098C13.6466 12.3594 13.7936 12.7312 14.0876 13.0252C14.3816 13.3192 14.7534 13.4662 15.203 13.4662ZM3.78947 19.1729V4.64661V19.1729ZM3.78947 21.2481C3.2188 21.2481 2.73009 21.0451 2.32335 20.6391C1.91731 20.2323 1.71429 19.7436 1.71429 19.1729V4.64661C1.71429 4.07594 1.91731 3.58723 2.32335 3.18049C2.73009 2.77445 3.2188 2.57143 3.78947 2.57143H18.3158C18.8865 2.57143 19.3752 2.77445 19.7819 3.18049C20.188 3.58723 20.391 4.07594 20.391 4.64661V7.2406H18.3158V4.64661H3.78947V19.1729H18.3158V16.5789H20.391V19.1729C20.391 19.7436 20.188 20.2323 19.7819 20.6391C19.3752 21.0451 18.8865 21.2481 18.3158 21.2481H3.78947ZM12.0902 17.0977C11.5195 17.0977 11.0312 16.8947 10.6251 16.4887C10.2184 16.0819 10.015 15.5932 10.015 15.0226V8.79699C10.015 8.22631 10.2184 7.73761 10.6251 7.33087C11.0312 6.92483 11.5195 6.7218 12.0902 6.7218H19.3534C19.9241 6.7218 20.4128 6.92483 20.8195 7.33087C21.2255 7.73761 21.4286 8.22631 21.4286 8.79699V15.0226C21.4286 15.5932 21.2255 16.0819 20.8195 16.4887C20.4128 16.8947 19.9241 17.0977 19.3534 17.0977H12.0902ZM19.3534 15.0226V8.79699H12.0902V15.0226H19.3534Z" fill="#596579"/>
</svg>
