<svg width="24" height="24" viewBox="0 0 24 24" fill="none" xmlns="http://www.w3.org/2000/svg">
<path d="M9.81516 2C8.6462 2 7.52511 2.46437 6.69853 3.29095C5.87195 4.11753 5.40758 5.23862 5.40758 6.40758C5.40758 7.57654 5.87195 8.69763 6.69853 9.52421C7.52511 10.3508 8.6462 10.8152 9.81516 10.8152C10.9841 10.8152 12.1052 10.3508 12.9318 9.52421C13.7584 8.69763 14.2227 7.57654 14.2227 6.40758C14.2227 5.23862 13.7584 4.11753 12.9318 3.29095C12.1052 2.46437 10.9841 2 9.81516 2ZM9.81516 4.20379C10.3996 4.20379 10.9602 4.43597 11.3735 4.84926C11.7868 5.26256 12.0189 5.8231 12.0189 6.40758C12.0189 6.99206 11.7868 7.5526 11.3735 7.96589C10.9602 8.37918 10.3996 8.61137 9.81516 8.61137C9.23068 8.61137 8.67013 8.37918 8.25684 7.96589C7.84355 7.5526 7.61137 6.99206 7.61137 6.40758C7.61137 5.8231 7.84355 5.26256 8.25684 4.84926C8.67013 4.43597 9.23068 4.20379 9.81516 4.20379ZM17.5284 10.8152C17.3521 10.8152 17.264 10.9033 17.264 11.0796L16.9775 12.468C16.7351 12.6663 16.3825 12.8426 16.118 13.0189L14.7076 12.468C14.6194 12.468 14.4431 12.468 14.355 12.5782L13.2971 14.5175C13.209 14.6057 13.209 14.782 13.3853 14.8701L14.5313 15.7737V16.8756L13.3853 17.7791C13.2971 17.8673 13.209 18.0436 13.2971 18.1317L14.355 20.0711C14.4431 20.1813 14.6194 20.1813 14.7076 20.1813L16.118 19.6303C16.3825 19.8066 16.7351 19.9829 16.9775 20.1813L17.264 21.5697C17.264 21.746 17.3521 21.8341 17.5284 21.8341H19.7322C19.8204 21.8341 19.9967 21.746 19.9967 21.5697L20.173 20.1813C20.5256 19.9829 20.8782 19.8066 21.1426 19.6303L22.4869 20.1813C22.6412 20.1813 22.8175 20.1813 22.8175 20.0711L23.9635 18.1317C24.0516 18.0436 23.9635 17.8673 23.8753 17.7791L22.7294 16.8756V15.7737L23.8753 14.8701C23.9635 14.782 24.0516 14.6057 23.9635 14.5175L22.8175 12.5782C22.8175 12.468 22.6412 12.468 22.4869 12.468L21.1426 13.0189C20.8782 12.8426 20.5256 12.6663 20.173 12.468L19.9967 11.0796C19.9967 10.9033 19.8204 10.8152 19.7322 10.8152H17.5284ZM9.81516 11.9171C6.8731 11.9171 1 13.3826 1 16.3246V19.6303H11.6553C11.3468 18.9802 11.1264 18.275 11.0162 17.5367H3.0936V16.3246C3.0936 15.6194 6.54253 14.0107 9.81516 14.0107C10.289 14.0107 10.7738 14.0547 11.2476 14.1208C11.468 13.4156 11.7655 12.7545 12.1512 12.1485C11.2917 12.0052 10.4763 11.9171 9.81516 11.9171ZM18.6744 14.6718C19.5559 14.6718 20.2832 15.399 20.2832 16.3687C20.2832 17.2502 19.5559 17.9775 18.6744 17.9775C17.7047 17.9775 16.9775 17.2502 16.9775 16.3687C16.9775 15.399 17.7047 14.6718 18.6744 14.6718Z" fill="#596579"/>
</svg>
