<svg width="24" height="24" viewBox="0 0 24 24" fill="none" xmlns="http://www.w3.org/2000/svg">
<path d="M20.25 8.25H21.75V11.25H20.25V8.25ZM2.25 8.25H3.75V11.25H2.25V8.25ZM15 15H16.5V16.5H15V15ZM7.5 15H9V16.5H7.5V15Z" fill="#596579"/>
<path d="M15.7501 2.9H15.75L8.25 2.9L8.24988 2.9C7.2292 2.90122 6.25068 3.30723 5.52895 4.02895C4.80723 4.75068 4.40122 5.7292 4.4 6.74988V6.75L4.4 17.25L4.4 17.2501C4.40042 17.6743 4.56912 18.081 4.86907 18.3809C5.14538 18.6572 5.51228 18.8222 5.9 18.8468V21V21.1H6H7.5H7.6V21V18.85H16.4V21V21.1H16.5H18H18.1V21V18.8467C18.4876 18.822 18.8544 18.657 19.1307 18.3807C19.4306 18.0808 19.5994 17.6743 19.6 17.2501V17.25V6.75V6.74988C19.5988 5.7292 19.1928 4.75068 18.471 4.02895C17.7493 3.30723 16.7708 2.90122 15.7501 2.9ZM17.9 7.6V11.9H6.1V7.6H17.9ZM8.25014 4.6H15.7499C16.193 4.60135 16.6248 4.73982 16.9861 4.99641C17.3085 5.22536 17.5605 5.53833 17.7157 5.9H6.28429C6.43946 5.53833 6.69154 5.22536 7.0139 4.99641C7.37517 4.73982 7.80702 4.60135 8.25014 4.6ZM6.1 17.15V13.6H17.9008L17.9015 17.15H6.1Z" fill="#596579" stroke="#596579" stroke-width="0.2"/>
</svg>
