<svg width="24" height="24" viewBox="0 0 24 24" fill="none" xmlns="http://www.w3.org/2000/svg">
<path d="M21.5534 18.5276L21.5786 18.4898V18.4444V7.80952C21.5786 7.35297 21.3972 6.91512 21.0744 6.59229C20.7515 6.26945 20.3137 6.08809 19.8571 6.08809C19.4006 6.08809 18.9627 6.26945 18.6399 6.59229C18.3171 6.91512 18.1357 7.35297 18.1357 7.80952V18.4444V18.4898L18.1609 18.5276L19.7323 20.8848L19.8571 21.072L19.9819 20.8848L21.5534 18.5276ZM19.5928 7.5452C19.6629 7.47509 19.758 7.43571 19.8571 7.43571C19.9563 7.43571 20.0514 7.47509 20.1215 7.5452C20.1916 7.6153 20.231 7.71038 20.231 7.80952V18.0816L19.8571 18.6423L19.4833 18.0816V7.80952C19.4833 7.71038 19.5227 7.6153 19.5928 7.5452Z" fill="#596579" stroke="#596579" stroke-width="0.3"/>
<path d="M20.9048 10.0548H21.0548V9.90476V8.85714V8.70714H20.9048H18.8095H18.6595V8.85714V9.90476V10.0548H18.8095H20.9048ZM4.03195 4.03196C4.20029 3.86362 4.4286 3.76905 4.66666 3.76905H15.1429C15.3809 3.76905 15.6092 3.86362 15.7776 4.03196C15.9459 4.20029 16.0405 4.42861 16.0405 4.66667V19.3333C16.0405 19.5714 15.9459 19.7997 15.7776 19.9681C15.6092 20.1364 15.3809 20.231 15.1429 20.231H4.66666C4.4286 20.231 4.20029 20.1364 4.03195 19.9681C3.86362 19.7997 3.76905 19.5714 3.76905 19.3333V4.66667C3.76905 4.42861 3.86362 4.20029 4.03195 4.03196ZM3.07904 3.07905C2.65798 3.50011 2.42143 4.07119 2.42143 4.66667V19.3333C2.42143 19.9288 2.65798 20.4999 3.07904 20.921C3.5001 21.342 4.07119 21.5786 4.66666 21.5786H15.1429C15.7383 21.5786 16.3094 21.342 16.7305 20.921C17.1515 20.4999 17.3881 19.9288 17.3881 19.3333V4.66667C17.3881 4.07119 17.1515 3.50011 16.7305 3.07905C16.3094 2.65798 15.7383 2.42143 15.1429 2.42143H4.66666C4.07119 2.42143 3.50011 2.65798 3.07904 3.07905Z" fill="#596579" stroke="#596579" stroke-width="0.3"/>
<path d="M8.80975 6.80934L8.80972 6.8093C8.68336 6.68298 8.51201 6.61202 8.33334 6.61202C8.15467 6.61202 7.98331 6.68298 7.85695 6.8093L7.85694 6.80932L6.2381 8.42816L5.66774 7.8578C5.60578 7.79391 5.53177 7.74293 5.44999 7.7078C5.36778 7.67248 5.27937 7.65389 5.1899 7.65312C5.10043 7.65234 5.0117 7.66939 4.92889 7.70327C4.84608 7.73715 4.77085 7.78718 4.70759 7.85045C4.64432 7.91371 4.59429 7.98894 4.56041 8.07175C4.52653 8.15456 4.50948 8.24329 4.51026 8.33276C4.51104 8.42222 4.52962 8.51064 4.56494 8.59285C4.60007 8.67463 4.65106 8.74864 4.71495 8.8106L6.13203 10.2277L6.2381 10.3338L6.34416 10.2277L8.80974 7.76212L8.80975 7.7621C8.93607 7.63574 9.00703 7.46439 9.00703 7.28572C9.00703 7.10705 8.93607 6.93569 8.80975 6.80934ZM9.95212 6.80926C9.82576 6.93563 9.75477 7.10701 9.75477 7.28572C9.75477 7.46442 9.82576 7.63581 9.95212 7.76217C10.0785 7.88854 10.2499 7.95953 10.4286 7.95953H14.6191C14.7978 7.95953 14.9691 7.88854 15.0955 7.76217C15.2219 7.63581 15.2929 7.46442 15.2929 7.28572C15.2929 7.10701 15.2219 6.93563 15.0955 6.80926C14.9691 6.6829 14.7978 6.61191 14.6191 6.61191H10.4286C10.2499 6.61191 10.0785 6.6829 9.95212 6.80926ZM9.95212 8.9045C9.82576 9.03087 9.75477 9.20225 9.75477 9.38096C9.75477 9.55966 9.82576 9.73105 9.95212 9.85741C10.0785 9.98378 10.2499 10.0548 10.4286 10.0548H14.6191C14.7978 10.0548 14.9691 9.98378 15.0955 9.85741C15.2219 9.73105 15.2929 9.55966 15.2929 9.38096C15.2929 9.20225 15.2219 9.03087 15.0955 8.9045C14.9691 8.77814 14.7978 8.70715 14.6191 8.70715H10.4286C10.2499 8.70715 10.0785 8.77814 9.95212 8.9045ZM9.95212 13.6188C9.82576 13.7452 9.75477 13.9165 9.75477 14.0952C9.75477 14.2739 9.82576 14.4453 9.95212 14.5717C10.0785 14.6981 10.2499 14.7691 10.4286 14.7691H14.6191C14.7978 14.7691 14.9691 14.6981 15.0955 14.5717C15.2219 14.4453 15.2929 14.2739 15.2929 14.0952C15.2929 13.9165 15.2219 13.7452 15.0955 13.6188C14.9691 13.4924 14.7978 13.4214 14.6191 13.4214H10.4286C10.2499 13.4214 10.0785 13.4924 9.95212 13.6188ZM9.95212 15.714C9.82576 15.8404 9.75477 16.0118 9.75477 16.1905C9.75477 16.3692 9.82576 16.5406 9.95212 16.6669C10.0785 16.7933 10.2499 16.8643 10.4286 16.8643H14.6191C14.7978 16.8643 14.9691 16.7933 15.0955 16.6669C15.2219 16.5406 15.2929 16.3692 15.2929 16.1905C15.2929 16.0118 15.2219 15.8404 15.0955 15.714C14.9691 15.5877 14.7978 15.5167 14.6191 15.5167H10.4286C10.2499 15.5167 10.0785 15.5877 9.95212 15.714ZM7.13572 15.5167H5.86429V14.2452H7.13572V15.5167ZM7.80953 12.8976H5.19048C5.01177 12.8976 4.84039 12.9686 4.71402 13.095C4.58766 13.2213 4.51667 13.3927 4.51667 13.5714V16.1905C4.51667 16.3692 4.58766 16.5406 4.71402 16.6669C4.84039 16.7933 5.01177 16.8643 5.19048 16.8643H7.80953C7.98823 16.8643 8.15962 16.7933 8.28598 16.6669C8.41235 16.5406 8.48334 16.3692 8.48334 16.1905V13.5714C8.48334 13.3927 8.41235 13.2213 8.28598 13.095C8.15962 12.9686 7.98823 12.8976 7.80953 12.8976Z" fill="#596579" stroke="#596579" stroke-width="0.3"/>
</svg>
