<svg width="24" height="24" viewBox="0 0 24 24" fill="none" xmlns="http://www.w3.org/2000/svg">
<path d="M18.9714 2H3.88571C2.94285 2 1.99999 2.84857 1.99999 3.88572V6.72372C1.99999 7.40257 2.40542 7.98714 2.94285 8.31714V18.9714C2.94285 20.0086 3.97999 20.8571 4.82856 20.8571H18.0286C18.8771 20.8571 19.9143 20.0086 19.9143 18.9714V8.31714C20.4517 7.98714 20.8571 7.40257 20.8571 6.72372V3.88572C20.8571 2.84857 19.9143 2 18.9714 2ZM18.0286 18.9714H4.82856V8.6H18.0286V18.9714ZM18.9714 6.71429H3.88571V3.88572H18.9714V6.71429Z" fill="#596579"/>
<path d="M8.6 11.4286H14.2571V13.3143H8.6V11.4286Z" fill="#596579"/>
</svg>
