<svg width="24" height="24" viewBox="0 0 24 24" fill="none" xmlns="http://www.w3.org/2000/svg">
<path d="M16.7674 15.1233L16.7674 15.1232C16.7039 15.0797 16.6302 15.0534 16.5535 15.047C16.4767 15.0407 16.3997 15.0545 16.3299 15.087L16.3279 15.088L16.3279 15.0879C16.2699 15.1134 16.2175 15.15 16.1735 15.1955L16.1732 15.1958C16.0796 15.2917 16.0274 15.4203 16.0276 15.5542L16.0276 15.5544V19.2444V19.2453C16.027 19.3117 16.0395 19.3775 16.0644 19.439C16.0893 19.5004 16.126 19.5562 16.1724 19.6034C16.2189 19.6495 16.2729 19.6873 16.3321 19.7153C16.431 19.7605 16.5432 19.7674 16.6469 19.7348C16.6931 19.7195 16.737 19.6979 16.7772 19.6706L16.7674 15.1233ZM16.7674 15.1233L16.7692 15.1244L19.5256 16.9316L19.5263 16.9321C19.5962 16.9771 19.6533 17.0393 19.6922 17.1128C19.7315 17.1888 19.7523 17.2731 19.7528 17.3588C19.7533 17.4446 19.7335 17.5293 19.695 17.6059L19.6946 17.6067C19.6583 17.6808 19.6027 17.7439 19.5338 17.7893L19.5338 17.7893L19.5324 17.7902L16.7774 19.6705L16.7674 15.1233ZM15.9276 15.5544V19.2444V15.5544ZM15.9276 15.5544C15.9274 15.3943 15.9898 15.2406 16.1016 15.126L15.9276 15.5544ZM17.9 10.8264V10.9178L17.991 10.926C18.3908 10.9622 18.7865 11.0354 19.1728 11.1446L19.3 11.1806V11.0484V4.8C19.3 4.13696 19.0366 3.50108 18.5678 3.03223C18.0989 2.56339 17.463 2.3 16.8 2.3H7.2C6.53696 2.3 5.90108 2.56339 5.43224 3.03223C4.96339 3.50108 4.7 4.13696 4.7 4.8V19.2C4.7 19.863 4.9634 20.4989 5.43224 20.9678C5.90108 21.4366 6.53696 21.7 7.2 21.7H12.3084H12.5207L12.3855 21.5363C12.0845 21.1718 11.8242 20.7755 11.6091 20.3545L11.5812 20.3H11.52H7.2C6.90826 20.3 6.62848 20.1841 6.42219 19.9778C6.2396 19.7952 6.12783 19.5551 6.10456 19.3H11.0484H11.1806L11.1446 19.1728C11.0353 18.7865 10.9621 18.3909 10.926 17.991L10.9178 17.9H10.8264H6.1V4.8C6.1 4.50826 6.2159 4.22847 6.42219 4.02218C6.62848 3.81589 6.90826 3.7 7.2 3.7H16.8C17.0917 3.7 17.3715 3.81589 17.5778 4.02218C17.7841 4.22847 17.9 4.50826 17.9 4.8V10.8264ZM8.4 4.7C8.05522 4.7 7.72456 4.83697 7.48076 5.08076C7.23697 5.32456 7.1 5.65522 7.1 6V7.2C7.1 7.54478 7.23697 7.87544 7.48076 8.11924C7.72456 8.36304 8.05522 8.5 8.4 8.5H15.6C15.9448 8.5 16.2754 8.36304 16.5192 8.11924C16.763 7.87544 16.9 7.54478 16.9 7.2V6C16.9 5.65522 16.763 5.32456 16.5192 5.08076C16.2754 4.83697 15.9448 4.7 15.6 4.7H8.4ZM15.5 6.1V7.1H8.5V6.1H15.5ZM21.2891 21.2891C22.3205 20.2576 22.9 18.8587 22.9 17.4C22.9 15.9413 22.3205 14.5424 21.2891 13.5109C20.2576 12.4795 18.8587 11.9 17.4 11.9C15.9413 11.9 14.5424 12.4795 13.5109 13.5109C12.4795 14.5424 11.9 15.9413 11.9 17.4C11.9 18.8587 12.4795 20.2576 13.5109 21.2891C14.5424 22.3205 15.9413 22.9 17.4 22.9C18.8587 22.9 20.2576 22.3205 21.2891 21.2891Z" fill="#596579" stroke="#596579" stroke-width="0.2"/>
</svg>
