<svg width="24" height="24" viewBox="0 0 24 24" fill="none" xmlns="http://www.w3.org/2000/svg">
<path d="M15.59 18.447L14.997 13.6997C14.913 13.0273 14.5862 12.4087 14.0781 11.9603C13.57 11.5119 12.9156 11.2646 12.238 11.2649H10.196C9.51864 11.2651 8.86469 11.5126 8.35697 11.9609C7.84926 12.4093 7.52274 13.0276 7.43875 13.6997L6.84487 18.447C6.81227 18.7079 6.83554 18.9726 6.91313 19.2238C6.99071 19.4749 7.12084 19.7066 7.29487 19.9036C7.4689 20.1006 7.68284 20.2583 7.92249 20.3663C8.16215 20.4742 8.42203 20.53 8.68487 20.5298H13.7509C14.0137 20.5298 14.2735 20.474 14.513 20.366C14.7525 20.258 14.9664 20.1003 15.1403 19.9033C15.3142 19.7063 15.4443 19.4746 15.5218 19.2235C15.5993 18.9725 15.6226 18.7078 15.59 18.447V18.447Z" stroke="#596579" stroke-width="2" stroke-linecap="round" stroke-linejoin="round"/>
<path d="M11.2179 7.55893C12.753 7.55893 13.9974 6.31452 13.9974 4.77947C13.9974 3.24441 12.753 2 11.2179 2C9.68285 2 8.43844 3.24441 8.43844 4.77947C8.43844 6.31452 9.68285 7.55893 11.2179 7.55893Z" stroke="#596579" stroke-width="2"/>
<path d="M3.80599 10.3384C4.82936 10.3384 5.65897 9.5088 5.65897 8.48542C5.65897 7.46205 4.82936 6.63245 3.80599 6.63245C2.78262 6.63245 1.95301 7.46205 1.95301 8.48542C1.95301 9.5088 2.78262 10.3384 3.80599 10.3384Z" stroke="#596579" stroke-width="2"/>
<path d="M18.6298 10.3384C19.6532 10.3384 20.4828 9.5088 20.4828 8.48542C20.4828 7.46205 19.6532 6.63245 18.6298 6.63245C17.6064 6.63245 16.7768 7.46205 16.7768 8.48542C16.7768 9.5088 17.6064 10.3384 18.6298 10.3384Z" stroke="#596579" stroke-width="2"/>
<path d="M3.80599 13.1179H3.52248C3.08385 13.1178 2.65941 13.2734 2.3247 13.5568C1.98998 13.8403 1.76668 14.2334 1.69452 14.666L1.386 16.519C1.34172 16.7845 1.35582 17.0564 1.42729 17.3159C1.49877 17.5754 1.62591 17.8162 1.79989 18.0215C1.97386 18.2269 2.19048 18.3919 2.43469 18.5051C2.67889 18.6182 2.94481 18.6768 3.21396 18.6768H6.58545M18.6298 13.1179H18.9133C19.3519 13.1178 19.7764 13.2734 20.1111 13.5568C20.4458 13.8403 20.6691 14.2334 20.7413 14.666L21.0498 16.519C21.0941 16.7845 21.08 17.0564 21.0085 17.3159C20.937 17.5754 20.8099 17.8162 20.6359 18.0215C20.4619 18.2269 20.2453 18.3919 20.0011 18.5051C19.7569 18.6182 19.491 18.6768 19.2218 18.6768H15.8503" stroke="#596579" stroke-width="2" stroke-linecap="round" stroke-linejoin="round"/>
</svg>
