<svg width="24" height="24" viewBox="0 0 24 24" fill="none" xmlns="http://www.w3.org/2000/svg">
<g clip-path="url(#clip0_37_298)">
<path d="M12.0437 5.6915L12.0001 5.67821L11.9565 5.69146L11.7217 5.76271L11.7217 5.76265L11.7176 5.76401L2.34332 8.90478L2.34264 8.90501L0.211821 9.60753L-0.226558 9.75207L0.213041 9.89285L1.35004 10.257V16.6263C0.900326 16.9197 0.600039 17.4196 0.600039 18C0.600039 18.4376 0.773878 18.8573 1.08331 19.1667C1.39275 19.4762 1.81243 19.65 2.25004 19.65C2.68765 19.65 3.10733 19.4762 3.41677 19.1667C3.7262 18.8573 3.90004 18.4376 3.90004 18C3.90004 17.4196 3.59975 16.9197 3.15004 16.6263V10.872L4.35004 11.265V15C4.35004 15.6791 4.7633 16.2278 5.22746 16.5951L5.22783 16.5954C5.69321 16.9613 6.26561 17.2154 6.93651 17.4395L6.9367 17.4396C8.28594 17.8883 10.0561 18.15 12 18.15C13.9439 18.15 15.7141 17.8891 17.0634 17.4388C17.7344 17.2154 18.3069 16.9613 18.7724 16.5946L18.7725 16.5945C19.2368 16.2279 19.65 15.6791 19.65 15V11.2643L21.6568 10.5952L21.6572 10.595L23.7883 9.89245L24.2202 9.75004L23.7883 9.60754L21.6567 8.90426L21.656 8.90404L12.2817 5.76401L12.2817 5.76395L12.2777 5.76275L12.0437 5.6915ZM6.15004 14.9849V11.8803L11.7186 13.736L11.7186 13.7361L11.7228 13.7374L11.9568 13.8079L12.0002 13.8209L12.0436 13.8078L12.2784 13.7365L12.2784 13.7366L12.2822 13.7353L17.85 11.8796V14.9847C17.8488 14.9869 17.8471 14.9899 17.8449 14.9935C17.8282 15.02 17.7835 15.0762 17.6726 15.1633L17.6722 15.1636C17.452 15.3379 17.0432 15.5668 16.499 15.7487C15.4071 16.1119 13.7854 16.35 12 16.35C10.2145 16.35 8.59282 16.1126 7.50028 15.748C6.95773 15.5669 6.5481 15.3371 6.32763 15.1634L6.3275 15.1633C6.21617 15.0758 6.17154 15.0196 6.15497 14.9933C6.15282 14.9899 6.15121 14.9871 6.15004 14.9849ZM17.85 15C17.85 15.0001 17.85 15.0001 17.85 14.9999V15ZM5.44313 9.74999L12 7.56436L18.5569 9.74999L12 11.9356L5.44313 9.74999Z" fill="#596579" stroke="#596579" stroke-width="0.3"/>
</g>
<defs>
<clipPath id="clip0_37_298">
<rect width="24" height="24" fill="white"/>
</clipPath>
</defs>
</svg>
